<svg width="1720" height="899" viewBox="0 0 1720 899" fill="none" xmlns="http://www.w3.org/2000/svg">
<rect x="0.5" y="0.5" width="1727" height="898" fill="#E9E9E9" stroke="white"/>
<rect x="227" y="226" width="490" height="90" rx="45" fill="#FFD7D7" stroke="black" stroke-width="2"/>
<path d="M286.883 260.807H289.919V263.429H294.082V260.807H297.118V270.306H286.883V260.807ZM289.919 265.706V267.914H294.082V265.706H289.919ZM299.97 259.749H303.029V271.042H299.97V259.749ZM301.787 264.004H305.835V266.488H301.787V264.004ZM288.194 278.609H289.597C293.622 278.609 295.025 278.563 296.635 278.172L296.934 280.38C295.232 280.794 293.783 280.84 289.597 280.84H288.194V278.609ZM288.171 271.939H295.301V277.39H291.161V280.265H288.194V275.297H292.357V274.17H288.171V271.939ZM296.175 271.939H303.029V280.932H300.016V274.331H296.175V271.939ZM307.42 270.605H326.671V273.043H307.42V270.605ZM309.743 278.241H324.509V280.679H309.743V278.241ZM309.743 274.469H312.802V279.023H309.743V274.469ZM317.057 260.37C321.68 260.37 324.762 262.049 324.762 264.763C324.762 267.477 321.68 269.156 317.057 269.156C312.411 269.156 309.352 267.477 309.352 264.763C309.352 262.049 312.411 260.37 317.057 260.37ZM317.057 262.808C314.182 262.808 312.503 263.475 312.503 264.763C312.503 266.074 314.182 266.718 317.057 266.718C319.932 266.718 321.611 266.074 321.611 264.763C321.611 263.475 319.932 262.808 317.057 262.808Z" fill="black"/>
<path d="M607.025 261.221C610.199 261.221 612.522 264.165 612.522 268.811C612.522 273.503 610.199 276.447 607.025 276.447C603.828 276.447 601.528 273.503 601.528 268.811C601.528 264.165 603.828 261.221 607.025 261.221ZM607.025 264.004C605.484 264.004 604.449 265.683 604.449 268.811C604.449 271.985 605.484 273.687 607.025 273.687C608.589 273.687 609.601 271.985 609.601 268.811C609.601 265.683 608.589 264.004 607.025 264.004ZM616.018 259.726H619.054V281.093H616.018V259.726ZM611.625 267.408H617.306V269.869H611.625V267.408ZM624.779 267.27H639.407V269.708H624.779V267.27ZM622.341 271.801H641.638V274.262H622.341V271.801ZM630.391 273.227H633.427V281.024H630.391V273.227ZM624.779 260.876H639.2V263.314H627.907V268.443H624.779V260.876ZM643.499 270.099H662.796V272.514H643.499V270.099ZM651.756 271.686H654.861V276.171H651.756V271.686ZM645.753 278.218H660.68V280.679H645.753V278.218ZM645.753 274.308H648.835V278.839H645.753V274.308ZM653.136 260.14C657.713 260.14 660.795 261.865 660.795 264.556C660.795 267.27 657.713 268.972 653.136 268.972C648.536 268.972 645.477 267.27 645.477 264.556C645.477 261.865 648.536 260.14 653.136 260.14ZM653.136 262.555C650.445 262.555 648.766 263.245 648.766 264.556C648.766 265.867 650.445 266.534 653.136 266.534C655.827 266.534 657.506 265.867 657.506 264.556C657.506 263.245 655.827 262.555 653.136 262.555Z" fill="black"/>
<line x1="350" y1="270" x2="581" y2="270" stroke="black" stroke-width="2"/>
<path d="M545.5 269.5C545.5 273.548 542.643 276.5 539.5 276.5C536.357 276.5 533.5 273.548 533.5 269.5C533.5 265.452 536.357 262.5 539.5 262.5C542.643 262.5 545.5 265.452 545.5 269.5Z" fill="#FFD7D7" stroke="black" stroke-width="3"/>
<rect x="227" y="396" width="490" height="90" rx="45" fill="#FFD7D7" stroke="black" stroke-width="2"/>
<path d="M295.255 434.878H298.498V437.316H295.255V434.878ZM287.09 439.225H288.539C291.575 439.225 293.53 439.179 295.853 438.788L296.129 441.157C293.714 441.594 291.69 441.64 288.539 441.64H287.09V439.225ZM287.09 431.014H295.117V433.429H290.034V440.628H287.09V431.014ZM289.16 435.108H294.335V437.431H289.16V435.108ZM301.511 429.749H304.409V442.445H301.511V429.749ZM297.348 430.071H300.2V442.284H297.348V430.071ZM289.988 443.296H304.409V450.817H289.988V443.296ZM301.419 445.688H293.001V448.402H301.419V445.688ZM307.443 446.171H326.717V448.678H307.443V446.171ZM315.493 441.364H318.552V447.298H315.493V441.364ZM308.915 431.497H325.13V433.935H308.915V431.497ZM309.007 439.984H325.061V442.376H309.007V439.984ZM311.813 433.521H314.872V440.26H311.813V433.521ZM319.196 433.521H322.232V440.26H319.196V433.521Z" fill="black"/>
<path d="M620.755 434.878H623.998V437.316H620.755V434.878ZM612.59 439.225H614.039C617.075 439.225 619.03 439.179 621.353 438.788L621.629 441.157C619.214 441.594 617.19 441.64 614.039 441.64H612.59V439.225ZM612.59 431.014H620.617V433.429H615.534V440.628H612.59V431.014ZM614.66 435.108H619.835V437.431H614.66V435.108ZM627.011 429.749H629.909V442.445H627.011V429.749ZM622.848 430.071H625.7V442.284H622.848V430.071ZM615.488 443.296H629.909V450.817H615.488V443.296ZM626.919 445.688H618.501V448.402H626.919V445.688ZM632.943 446.171H652.217V448.678H632.943V446.171ZM640.993 441.364H644.052V447.298H640.993V441.364ZM634.415 431.497H650.63V433.935H634.415V431.497ZM634.507 439.984H650.561V442.376H634.507V439.984ZM637.313 433.521H640.372V440.26H637.313V433.521ZM644.696 433.521H647.732V440.26H644.696V433.521Z" fill="black"/>
<line x1="350" y1="440" x2="581" y2="440" stroke="black" stroke-width="2"/>
<path d="M545.5 439.5C545.5 443.548 542.643 446.5 539.5 446.5C536.357 446.5 533.5 443.548 533.5 439.5C533.5 435.452 536.357 432.5 539.5 432.5C542.643 432.5 545.5 435.452 545.5 439.5Z" fill="#FFD7D7" stroke="black" stroke-width="3"/>
<rect x="227" y="566" width="490" height="90" rx="45" fill="#FFD7D7" stroke="black" stroke-width="2"/>
<path d="M286.285 616.102H305.559V618.586H286.285V616.102ZM294.358 611.548H297.417V616.7H294.358V611.548ZM288.309 601.106H291.345V604.372H300.43V601.106H303.466V612.192H288.309V601.106ZM291.345 606.764V609.754H300.43V606.764H291.345ZM318.552 604.303H322.646V606.741H318.552V604.303ZM315.309 600.669H318.506C318.506 606.419 315.7 609.777 308.892 611.364L307.788 609.041C313.63 607.776 315.309 605.315 315.309 602.187V600.669ZM308.961 600.669H317.517V603.015H308.961V600.669ZM315.93 604.211V606.212L308.317 606.764L307.903 604.464L315.93 604.211ZM322.186 599.749H325.245V610.49H322.186V599.749ZM311.169 611.318H325.245V617.114H314.228V619.736H311.215V614.906H322.209V613.687H311.169V611.318ZM311.215 618.448H325.682V620.817H311.215V618.448Z" fill="black"/>
<path d="M626.367 599.726H629.449V621.093H626.367V599.726ZM612.82 601.428H615.856V606.603H620.249V601.428H623.285V616.125H612.82V601.428ZM615.856 608.972V613.664H620.249V608.972H615.856ZM635.197 610.72H650.17V613.112H635.197V610.72ZM632.943 616.125H652.217V618.609H632.943V616.125ZM635.197 601.29H649.986V603.751H638.302V611.387H635.197V601.29ZM637.359 605.982H649.503V608.351H637.359V605.982Z" fill="black"/>
<line x1="350" y1="610" x2="581" y2="610" stroke="black" stroke-width="2"/>
<path d="M456.5 610.5C456.5 614.548 453.643 617.5 450.5 617.5C447.357 617.5 444.5 614.548 444.5 610.5C444.5 606.452 447.357 603.5 450.5 603.5C453.643 603.5 456.5 606.452 456.5 610.5Z" fill="#FFD7D7" stroke="black" stroke-width="3"/>
<rect x="996" y="567" width="490" height="90" rx="45" fill="#FFD7D7" stroke="black" stroke-width="2"/>
<path d="M1056 610.685H1057.47C1060.53 610.685 1062.53 610.616 1064.88 610.133L1065.11 612.571C1062.71 613.054 1060.62 613.146 1057.47 613.146H1056V610.685ZM1056 602.635H1064.25V605.05H1059.01V611.513H1056V602.635ZM1070.51 600.749H1073.41V616.481H1070.51V600.749ZM1067.91 606.453H1071.29V608.914H1067.91V606.453ZM1065.96 601.14H1068.81V615.952H1065.96V601.14ZM1059.08 619.241H1073.96V621.679H1059.08V619.241ZM1059.08 614.664H1062.14V620.598H1059.08V614.664ZM1091.05 600.772H1094.13V613.33H1091.05V600.772ZM1086.95 613.698C1091.44 613.698 1094.27 615.239 1094.27 617.838C1094.27 620.46 1091.44 622.001 1086.95 622.001C1082.47 622.001 1079.69 620.46 1079.69 617.838C1079.69 615.239 1082.47 613.698 1086.95 613.698ZM1086.95 616.067C1084.19 616.067 1082.72 616.642 1082.72 617.838C1082.72 619.057 1084.19 619.609 1086.95 619.609C1089.74 619.609 1091.21 619.057 1091.21 617.838C1091.21 616.642 1089.74 616.067 1086.95 616.067ZM1081.41 601.669H1083.94V603.716C1083.94 607.787 1081.99 611.513 1077.85 612.893L1076.33 610.455C1079.92 609.282 1081.41 606.453 1081.41 603.716V601.669ZM1082.03 601.669H1084.54V603.716C1084.54 606.338 1086.03 608.891 1089.48 609.926L1088.01 612.341C1083.92 611.053 1082.03 607.649 1082.03 603.716V601.669Z" fill="black"/>
<path d="M1383.8 600.726H1386.88V622.024H1383.8V600.726ZM1386.08 608.868H1389.82V611.375H1386.08V608.868ZM1378.21 602.934H1381.2C1381.2 609.328 1378.76 614.802 1371.68 618.367L1369.98 616.044C1375.56 613.146 1378.21 609.236 1378.21 603.463V602.934ZM1371.15 602.934H1379.77V605.395H1371.15V602.934ZM1391.98 602.75H1402.17V616.872H1391.98V602.75ZM1399.16 605.142H1395V614.457H1399.16V605.142ZM1404.96 600.749H1408.04V622.047H1404.96V600.749ZM1407.35 608.776H1411.12V611.306H1407.35V608.776ZM1427.24 600.749H1430.3V622.047H1427.24V600.749ZM1413.63 602.773H1416.66V615.998H1413.63V602.773ZM1413.63 614.204H1415.51C1418.62 614.204 1422.07 613.974 1425.59 613.284L1425.93 615.814C1422.27 616.573 1418.76 616.803 1415.51 616.803H1413.63V614.204Z" fill="black"/>
<line x1="1119" y1="611" x2="1350" y2="611" stroke="black" stroke-width="2"/>
<path d="M1314.5 610.5C1314.5 614.548 1311.64 617.5 1308.5 617.5C1305.36 617.5 1302.5 614.548 1302.5 610.5C1302.5 606.452 1305.36 603.5 1308.5 603.5C1311.64 603.5 1314.5 606.452 1314.5 610.5Z" fill="#FFD7D7" stroke="black" stroke-width="3"/>
<rect x="996" y="398" width="490" height="90" rx="45" fill="#FFD7D7" stroke="black" stroke-width="2"/>
<path d="M1042.49 431.749H1045.39V453.047H1042.49V431.749ZM1039.64 439.937H1043.18V442.398H1039.64V439.937ZM1037.73 432.117H1040.56V452.035H1037.73V432.117ZM1027.7 445.733H1029.2C1031.82 445.733 1034 445.641 1036.53 445.181L1036.76 447.665C1034.19 448.171 1031.93 448.24 1029.2 448.24H1027.7V445.733ZM1027.7 434.21H1035.57V436.671H1030.74V446.929H1027.7V434.21ZM1056.36 442.444H1059.42V446.193H1056.36V442.444ZM1048.26 441.432H1067.51V443.847H1048.26V441.432ZM1057.85 445.365C1062.45 445.365 1065.24 446.745 1065.24 449.206C1065.24 451.667 1062.45 453.047 1057.85 453.047C1053.23 453.047 1050.45 451.667 1050.45 449.206C1050.45 446.745 1053.23 445.365 1057.85 445.365ZM1057.85 447.665C1055 447.665 1053.55 448.148 1053.55 449.206C1053.55 450.241 1055 450.747 1057.85 450.747C1060.7 450.747 1062.15 450.241 1062.15 449.206C1062.15 448.148 1060.7 447.665 1057.85 447.665ZM1055.78 433.75H1058.5V434.279C1058.5 437.476 1055.62 440.098 1050.12 440.604L1049.07 438.212C1053.74 437.821 1055.78 435.935 1055.78 434.279V433.75ZM1057.28 433.75H1059.99V434.279C1059.99 435.958 1062.02 437.821 1066.71 438.212L1065.65 440.604C1060.18 440.098 1057.28 437.499 1057.28 434.279V433.75ZM1050.01 432.623H1065.79V435.038H1050.01V432.623ZM1074.34 433.865H1076.83V435.222C1076.83 439.224 1074.94 442.927 1070.85 444.261L1069.31 441.846C1072.82 440.696 1074.34 437.89 1074.34 435.222V433.865ZM1074.99 433.865H1077.45V435.222C1077.45 437.706 1078.9 440.328 1082.25 441.455L1080.76 443.847C1076.8 442.536 1074.99 438.994 1074.99 435.222V433.865ZM1081.01 436.832H1085.06V439.316H1081.01V436.832ZM1070.13 432.922H1081.59V435.337H1070.13V432.922ZM1072.73 445.388H1087.25V453.047H1084.19V447.826H1072.73V445.388ZM1084.19 431.749H1087.25V444.422H1084.19V431.749ZM1105.21 431.772H1108.29V447.067H1105.21V431.772ZM1094.1 450.241H1108.82V452.679H1094.1V450.241ZM1094.1 445.526H1097.16V451.23H1094.1V445.526ZM1096.7 433.106C1099.96 433.106 1102.47 435.36 1102.47 438.511C1102.47 441.639 1099.96 443.916 1096.7 443.916C1093.43 443.916 1090.9 441.639 1090.9 438.511C1090.9 435.36 1093.43 433.106 1096.7 433.106ZM1096.7 435.751C1095.11 435.751 1093.89 436.763 1093.89 438.511C1093.89 440.236 1095.11 441.248 1096.7 441.248C1098.26 441.248 1099.48 440.236 1099.48 438.511C1099.48 436.763 1098.26 435.751 1096.7 435.751Z" fill="black"/>
<path d="M1380.5 439.799H1384.25V442.306H1380.5V439.799ZM1378.22 431.726H1381.3V453.024H1378.22V431.726ZM1365.25 433.773H1368.31V446.998H1365.25V433.773ZM1365.25 445.296H1367.09C1370.12 445.296 1373.41 445.089 1376.84 444.399L1377.16 446.906C1373.64 447.642 1370.22 447.826 1367.09 447.826H1365.25V445.296ZM1386.38 433.497H1396.53V443.778H1386.38V433.497ZM1393.51 435.912H1389.4V441.363H1393.51V435.912ZM1399.47 431.749H1402.53V447.274H1399.47V431.749ZM1401.65 437.89H1405.36V440.397H1401.65V437.89ZM1388.8 450.241H1403.29V452.679H1388.8V450.241ZM1388.8 445.756H1391.86V451.46H1388.8V445.756ZM1412.62 433.221C1415.87 433.221 1418.21 436.165 1418.21 440.811C1418.21 445.503 1415.87 448.447 1412.62 448.447C1409.38 448.447 1407.04 445.503 1407.04 440.811C1407.04 436.165 1409.38 433.221 1412.62 433.221ZM1412.62 436.004C1411.04 436.004 1409.98 437.683 1409.98 440.811C1409.98 443.985 1411.04 445.687 1412.62 445.687C1414.21 445.687 1415.29 443.985 1415.29 440.811C1415.29 437.683 1414.21 436.004 1412.62 436.004ZM1420.54 431.749H1423.62V453.047H1420.54V431.749ZM1422.93 439.776H1426.7V442.306H1422.93V439.776ZM1430.47 437.499H1445.24V439.914H1430.47V437.499ZM1428.08 442.122H1447.38V444.56H1428.08V442.122ZM1430.47 432.508H1433.51V438.695H1430.47V432.508ZM1430.26 450.149H1445.35V452.587H1430.26V450.149ZM1430.26 446.262H1433.32V450.793H1430.26V446.262Z" fill="black"/>
<line x1="1119" y1="442" x2="1350" y2="442" stroke="black" stroke-width="2"/>
<path d="M1314.5 441.5C1314.5 445.548 1311.64 448.5 1308.5 448.5C1305.36 448.5 1302.5 445.548 1302.5 441.5C1302.5 437.452 1305.36 434.5 1308.5 434.5C1311.64 434.5 1314.5 437.452 1314.5 441.5Z" fill="#FFD7D7" stroke="black" stroke-width="3"/>
<rect x="996" y="227" width="490" height="90" rx="45" fill="#FFD3D3" stroke="black" stroke-width="2"/>
<rect x="683" y="747" width="310" height="78" rx="19" fill="#030303" stroke="black" stroke-width="2"/>
<path d="M978 786L963 777.34V794.66L978 786ZM930 787.5H951.12V784.5H930V787.5ZM951.12 787.5H964.5V784.5H951.12V787.5Z" fill="white"/>
<path d="M1058.39 260.749H1061.45V273.077H1058.39V260.749ZM1060.6 265.717H1064.28V268.224H1060.6V265.717ZM1052.3 262.129H1055.58C1055.58 267.856 1052.04 271.835 1045.76 273.583L1044.52 271.145C1049.65 269.742 1052.3 266.959 1052.3 263.67V262.129ZM1045.53 262.129H1054.16V264.59H1045.53V262.129ZM1054.55 273.353C1058.85 273.353 1061.68 275.032 1061.68 277.7C1061.68 280.391 1058.85 282.07 1054.55 282.07C1050.25 282.07 1047.37 280.391 1047.37 277.7C1047.37 275.032 1050.25 273.353 1054.55 273.353ZM1054.55 275.722C1051.95 275.722 1050.41 276.412 1050.41 277.7C1050.41 279.011 1051.95 279.701 1054.55 279.701C1057.15 279.701 1058.69 279.011 1058.69 277.7C1058.69 276.412 1057.15 275.722 1054.55 275.722ZM1077.2 263.003H1081.16V265.418H1077.2V263.003ZM1077.2 266.982H1081.16V269.42H1077.2V266.982ZM1066.65 269.121H1068.26C1071.66 269.121 1073.94 269.098 1076.74 268.73L1076.95 271.03C1074.12 271.421 1071.73 271.444 1068.26 271.444H1066.65V269.121ZM1066.62 261.715H1075.98V267.58H1069.68V270.156H1066.65V265.441H1072.95V264.015H1066.62V261.715ZM1069.43 272.663H1083.67V278.321H1072.49V280.598H1069.45V276.182H1080.63V274.94H1069.43V272.663ZM1069.45 279.609H1084.29V281.932H1069.45V279.609ZM1080.61 260.749H1083.67V271.835H1080.61V260.749ZM1100.71 260.772H1103.77V276.688H1100.71V260.772ZM1102.89 267.258H1106.6V269.765H1102.89V267.258ZM1087 262.98H1099.53V265.372H1087V262.98ZM1093.28 266.131C1096.34 266.131 1098.5 267.81 1098.5 270.248C1098.5 272.686 1096.34 274.342 1093.28 274.342C1090.2 274.342 1088.03 272.686 1088.03 270.248C1088.03 267.81 1090.2 266.131 1093.28 266.131ZM1093.28 268.454C1091.92 268.454 1090.98 269.098 1090.98 270.248C1090.98 271.398 1091.92 272.019 1093.28 272.019C1094.64 272.019 1095.58 271.398 1095.58 270.248C1095.58 269.098 1094.64 268.454 1093.28 268.454ZM1091.74 260.726H1094.8V264.153H1091.74V260.726ZM1090.04 279.241H1104.53V281.679H1090.04V279.241ZM1090.04 275.492H1093.09V280.299H1090.04V275.492Z" fill="black"/>
<path d="M1374.85 266.269H1377.22V267.373C1377.22 271.858 1375.31 276.389 1371.45 278.114L1369.79 275.768C1373.26 274.181 1374.85 270.57 1374.85 267.373V266.269ZM1375.52 266.269H1377.89V267.373C1377.89 270.409 1379.38 273.813 1382.72 275.423L1381.08 277.746C1377.34 276.021 1375.52 271.651 1375.52 267.373V266.269ZM1370.53 264.222H1382.12V266.637H1370.53V264.222ZM1374.83 261.232H1377.89V265.464H1374.83V261.232ZM1383.8 260.749H1386.88V282.047H1383.8V260.749ZM1386.19 269.006H1389.96V271.536H1386.19V269.006ZM1391.34 271.651H1410.61V274.066H1391.34V271.651ZM1399.69 272.939H1402.77V277.424H1399.69V272.939ZM1393.57 279.241H1408.5V281.679H1393.57V279.241ZM1393.57 275.814H1396.61V280.276H1393.57V275.814ZM1393.8 261.416H1396.81V263.601H1405.12V261.416H1408.15V270.179H1393.8V261.416ZM1396.81 265.901V267.787H1405.12V265.901H1396.81ZM1426.21 260.772H1429.27V276.688H1426.21V260.772ZM1428.39 267.258H1432.1V269.765H1428.39V267.258ZM1412.5 262.98H1425.03V265.372H1412.5V262.98ZM1418.78 266.131C1421.84 266.131 1424 267.81 1424 270.248C1424 272.686 1421.84 274.342 1418.78 274.342C1415.7 274.342 1413.53 272.686 1413.53 270.248C1413.53 267.81 1415.7 266.131 1418.78 266.131ZM1418.78 268.454C1417.42 268.454 1416.48 269.098 1416.48 270.248C1416.48 271.398 1417.42 272.019 1418.78 272.019C1420.14 272.019 1421.08 271.398 1421.08 270.248C1421.08 269.098 1420.14 268.454 1418.78 268.454ZM1417.24 260.726H1420.3V264.153H1417.24V260.726ZM1415.54 279.241H1430.03V281.679H1415.54V279.241ZM1415.54 275.492H1418.59V280.299H1415.54V275.492Z" fill="black"/>
<line x1="1119" y1="271" x2="1350" y2="271" stroke="black" stroke-width="2"/>
<path d="M1194.5 270.5C1194.5 274.548 1191.64 277.5 1188.5 277.5C1185.36 277.5 1182.5 274.548 1182.5 270.5C1182.5 266.452 1185.36 263.5 1188.5 263.5C1191.64 263.5 1194.5 266.452 1194.5 270.5Z" fill="#FFD7D7" stroke="black" stroke-width="3"/>
<path d="M319.945 92.137H327.932V97.478H319.945V92.137ZM315.094 74.938H321.66V120.312H315.094V74.938ZM287.458 79.299H293.975V107.474H287.458V79.299ZM287.458 103.848H291.378C297.846 103.848 304.853 103.407 312.154 101.937L312.84 107.278C305.343 108.846 298.042 109.238 291.378 109.238H287.458V103.848ZM332.485 78.711H354.094V100.614H332.485V78.711ZM347.675 83.856H338.904V95.469H347.675V83.856ZM360.366 74.987H366.883V108.062H360.366V74.987ZM365.021 88.07H372.91V93.411H365.021V88.07ZM337.63 114.383H368.5V119.577H337.63V114.383ZM337.63 104.828H344.147V116.98H337.63V104.828ZM390.84 77.976C397.994 77.976 403.335 82.631 403.335 89.148C403.335 95.714 397.994 100.369 390.84 100.369C383.735 100.369 378.296 95.714 378.296 89.148C378.296 82.631 383.735 77.976 390.84 77.976ZM390.84 83.562C387.361 83.562 384.715 85.62 384.715 89.148C384.715 92.725 387.361 94.783 390.84 94.783C394.319 94.783 396.965 92.725 396.965 89.148C396.965 85.62 394.319 83.562 390.84 83.562ZM407.598 74.938H414.115V120.459H407.598V74.938ZM377.218 111.247L376.434 106.004C384.421 106.004 395.544 105.906 405.099 104.485L405.589 109.189C395.74 111.149 385.058 111.247 377.218 111.247ZM451.641 76.212H485.451V81.063H451.641V76.212ZM451.984 86.845H485.108V91.696H451.984V86.845ZM457.423 78.123H463.94V89.981H457.423V78.123ZM473.152 78.123H479.669V89.981H473.152V78.123ZM448.064 94.048H489.077V99.144H448.064V94.048ZM452.768 101.643H484.128V112.913H459.236V117.127H452.817V108.552H477.709V106.298H452.768V101.643ZM452.817 115.314H485.304V120.067H452.817V115.314ZM494.365 104.436H497.599C503.087 104.436 507.938 104.289 513.573 103.309L514.112 108.552C508.281 109.63 503.283 109.777 497.599 109.777H494.365V104.436ZM494.316 79.446H510.339V96.792H500.686V106.494H494.365V91.696H504.067V84.591H494.316V79.446ZM525.921 74.987H532.095V120.361H525.921V74.987ZM512.201 90.422H519.257V95.763H512.201V90.422ZM516.709 75.82H522.736V118.205H516.709V75.82ZM569.331 74.938H575.897V120.459H569.331V74.938ZM551.446 78.123C558.306 78.123 563.353 84.395 563.353 94.293C563.353 104.289 558.306 110.561 551.446 110.561C544.586 110.561 539.539 104.289 539.539 94.293C539.539 84.395 544.586 78.123 551.446 78.123ZM551.446 84.052C548.065 84.052 545.762 87.629 545.762 94.293C545.762 101.055 548.065 104.681 551.446 104.681C554.827 104.681 557.081 101.055 557.081 94.293C557.081 87.629 554.827 84.052 551.446 84.052ZM614.554 74.938H621.071V120.459H614.554V74.938ZM585.742 104.583H589.76C597.796 104.583 604.215 104.289 611.418 103.064L612.055 108.307C604.705 109.63 598.041 109.875 589.76 109.875H585.742V104.583ZM585.693 78.809H607.106V96.351H592.357V106.543H585.742V91.206H600.442V84.003H585.693V78.809ZM645.224 77.584H650.908V80.867C650.908 90.716 643.901 99.438 632.141 101.741L629.348 96.351C639.589 94.587 645.224 87.384 645.224 80.867V77.584ZM646.547 77.584H652.182V80.867C652.182 87.531 657.768 94.587 668.058 96.351L665.265 101.741C653.505 99.438 646.547 90.863 646.547 80.867V77.584ZM628.417 109.532H669.479V114.824H628.417V109.532ZM678.295 98.36H710.194V103.456H678.295V98.36ZM673.493 109.875H714.555V115.167H673.493V109.875ZM678.295 78.27H709.802V83.513H684.91V99.781H678.295V78.27ZM682.901 88.266H708.773V93.313H682.901V88.266ZM718.521 95.322H759.632V100.075H718.521V95.322ZM723.127 102.329H754.732V113.109H729.693V116.98H723.225V108.993H748.313V106.739H723.127V102.329ZM723.225 115.608H756.006V120.018H723.225V115.608ZM723.568 75.771H754.634V86.453H730.085V90.177H723.617V82.386H748.215V80.132H723.568V75.771ZM723.617 88.805H755.467V93.215H723.617V88.805ZM824.205 92.137H832.192V97.478H824.205V92.137ZM819.354 74.938H825.92V120.312H819.354V74.938ZM791.718 79.299H798.235V107.474H791.718V79.299ZM791.718 103.848H795.638C802.106 103.848 809.113 103.407 816.414 101.937L817.1 107.278C809.603 108.846 802.302 109.238 795.638 109.238H791.718V103.848ZM836.745 78.711H858.354V100.614H836.745V78.711ZM851.935 83.856H843.164V95.469H851.935V83.856ZM864.626 74.987H871.143V108.062H864.626V74.987ZM869.281 88.07H877.17V93.411H869.281V88.07ZM841.89 114.383H872.76V119.577H841.89V114.383ZM841.89 104.828H848.407V116.98H841.89V104.828ZM895.1 77.976C902.254 77.976 907.595 82.631 907.595 89.148C907.595 95.714 902.254 100.369 895.1 100.369C887.995 100.369 882.556 95.714 882.556 89.148C882.556 82.631 887.995 77.976 895.1 77.976ZM895.1 83.562C891.621 83.562 888.975 85.62 888.975 89.148C888.975 92.725 891.621 94.783 895.1 94.783C898.579 94.783 901.225 92.725 901.225 89.148C901.225 85.62 898.579 83.562 895.1 83.562ZM911.858 74.938H918.375V120.459H911.858V74.938ZM881.478 111.247L880.694 106.004C888.681 106.004 899.804 105.906 909.359 104.485L909.849 109.189C900 111.149 889.318 111.247 881.478 111.247ZM983.585 74.987H990.151V120.361H983.585V74.987ZM970.208 79.691H976.676C976.676 93.558 971.972 104.926 955.851 112.717L952.47 107.523C965.504 101.251 970.208 93.019 970.208 80.867V79.691ZM954.871 79.691H973.295V84.836H954.871V79.691ZM1013.42 79.789H1019.2V80.867C1019.2 88.07 1013.13 94.146 1001.56 95.469L999.212 90.324C1009.06 89.246 1013.42 84.787 1013.42 80.867V79.789ZM1016.61 79.789H1022.39V80.867C1022.39 84.836 1026.8 89.246 1036.65 90.324L1034.25 95.469C1022.73 94.146 1016.61 88.119 1016.61 80.867V79.789ZM1001.12 76.947H1034.74V82.043H1001.12V76.947ZM997.399 97.576H1038.46V102.77H997.399V97.576ZM1015.19 100.859H1021.75V110.414H1015.19V100.859ZM1002.15 114.383H1033.95V119.577H1002.15V114.383ZM1002.15 106.543H1008.62V116.196H1002.15V106.543ZM1063.01 77.241C1072.56 77.241 1079.96 82.484 1079.96 90.373C1079.96 98.311 1072.56 103.505 1063.01 103.505C1053.45 103.505 1046.05 98.311 1046.05 90.373C1046.05 82.484 1053.45 77.241 1063.01 77.241ZM1063.01 82.533C1056.83 82.533 1052.42 85.473 1052.42 90.373C1052.42 95.224 1056.83 98.164 1063.01 98.164C1069.18 98.164 1073.59 95.224 1073.59 90.373C1073.59 85.473 1069.18 82.533 1063.01 82.533ZM1042.52 109.581H1083.59V114.922H1042.52V109.581ZM1087.6 110.071H1128.66V115.363H1087.6V110.071ZM1104.8 101.496H1111.32V112.227H1104.8V101.496ZM1092.21 77.927H1124.06V93.019H1098.77V100.663H1092.3V87.923H1117.59V83.072H1092.21V77.927ZM1092.3 98.066H1125.09V103.309H1092.3V98.066ZM1160.7 78.711H1182.31V100.614H1160.7V78.711ZM1175.89 83.856H1167.12V95.469H1175.89V83.856ZM1188.58 74.987H1195.1V108.062H1188.58V74.987ZM1193.24 88.07H1201.12V93.411H1193.24V88.07ZM1165.84 114.383H1196.71V119.577H1165.84V114.383ZM1165.84 104.828H1172.36V116.98H1165.84V104.828ZM1204.5 92.578H1245.56V97.723H1204.5V92.578ZM1209.55 85.032H1240.71V90.128H1209.55V85.032ZM1209.55 75.82H1240.32V81.014H1216.02V89.442H1209.55V75.82ZM1209.16 100.271H1240.52V112.276H1215.63V116.196H1209.21V107.67H1234.1V105.171H1209.16V100.271ZM1209.21 115.02H1241.69V120.018H1209.21V115.02ZM1261.98 78.123C1268.74 78.123 1273.69 84.395 1273.69 94.293C1273.69 104.289 1268.74 110.561 1261.98 110.561C1255.16 110.561 1250.26 104.289 1250.26 94.293C1250.26 84.395 1255.16 78.123 1261.98 78.123ZM1261.98 84.052C1258.69 84.052 1256.49 87.629 1256.49 94.293C1256.49 101.055 1258.69 104.681 1261.98 104.681C1265.31 104.681 1267.46 101.055 1267.46 94.293C1267.46 87.629 1265.31 84.052 1261.98 84.052ZM1281.13 74.938H1287.6V120.459H1281.13V74.938ZM1271.78 91.304H1283.88V96.547H1271.78V91.304ZM1294.65 109.826H1335.72V115.118H1294.65V109.826ZM1311.85 100.124H1318.37V111.1H1311.85V100.124ZM1298.97 77.878H1305.43V84.836H1324.79V77.878H1331.26V101.496H1298.97V77.878ZM1305.43 89.932V96.302H1324.79V89.932H1305.43ZM1357.57 90.226H1365.06V95.518H1357.57V90.226ZM1347.86 78.907H1352.86V86.551C1352.86 96.841 1350.02 106.886 1342.77 111.345L1338.85 106.445C1345.51 102.329 1347.86 94.244 1347.86 86.551V78.907ZM1349.29 78.907H1354.19V86.257C1354.19 93.656 1356.1 101.202 1362.27 105.22L1358.74 110.316C1351.54 105.857 1349.29 96.057 1349.29 86.257V78.907ZM1372.46 74.987H1378.69V120.361H1372.46V74.987ZM1363.25 75.673H1369.33V118.303H1363.25V75.673ZM1393.82 98.017H1400.29V110.757H1393.82V98.017ZM1410.29 98.017H1416.8V110.757H1410.29V98.017ZM1384.81 109.826H1425.87V115.118H1384.81V109.826ZM1405.29 77.192C1415.04 77.192 1422.24 81.994 1422.24 89.393C1422.24 96.792 1415.04 101.545 1405.29 101.545C1395.49 101.545 1388.33 96.792 1388.33 89.393C1388.33 81.994 1395.49 77.192 1405.29 77.192ZM1405.29 82.288C1398.97 82.288 1394.75 84.885 1394.75 89.393C1394.75 93.852 1398.97 96.498 1405.29 96.498C1411.61 96.498 1415.82 93.852 1415.82 89.393C1415.82 84.885 1411.61 82.288 1405.29 82.288Z" fill="black"/>
<path d="M723.861 778.107H726.299V780.499C726.299 785.421 724.298 790.228 720.296 792.045L718.571 789.63C722.136 788.043 723.861 784.11 723.861 780.499V778.107ZM724.551 778.107H726.966V780.499C726.966 783.949 728.668 787.629 732.233 789.101L730.577 791.516C726.529 789.768 724.551 785.237 724.551 780.499V778.107ZM719.422 776.796H731.359V779.303H719.422V776.796ZM733.337 774.749H736.419V796.047H733.337V774.749ZM742.259 775.692H755.76V778.13H742.259V775.692ZM739.913 783.351H759.187V785.789H739.913V783.351ZM753.92 775.692H756.933V777.394C756.933 779.234 756.933 781.212 756.289 783.972L753.253 783.926C753.92 781.166 753.92 779.211 753.92 777.394V775.692ZM742.167 788.02H756.841V795.817H742.167V788.02ZM753.828 790.389H745.157V793.402H753.828V790.389ZM787.22 774.749H790.302V796.047H787.22V774.749ZM789.612 782.684H793.384V785.214H789.612V782.684ZM774.248 776.428H777.284V781.603H781.562V776.428H784.598V791.125H774.248V776.428ZM777.284 783.972V788.664H781.562V783.972H777.284ZM794.785 791.217H814.059V793.701H794.785V791.217ZM802.858 787.192H805.917V792.229H802.858V787.192ZM796.947 776.129H811.897V783.213H800.029V786.801H796.993V780.821H808.861V778.544H796.947V776.129ZM796.993 785.582H812.38V788.043H796.993V785.582ZM833.306 784.478H836.365V787.537H833.306V784.478ZM842.322 774.772H845.381V789.262H842.322V774.772ZM844.3 780.844H848.049V783.351H844.3V780.844ZM828.568 788.848L828.223 786.479C832.041 786.479 837.078 786.456 841.379 785.927L841.609 788.02C837.17 788.779 832.294 788.825 828.568 788.848ZM830.937 790.113H845.381V796.047H842.322V792.459H830.937V790.113ZM828.775 776.313H840.85V778.498H828.775V776.313ZM834.824 779.004C837.952 779.004 839.999 780.223 839.999 782.178C839.999 784.133 837.952 785.352 834.824 785.352C831.673 785.352 829.626 784.133 829.626 782.178C829.626 780.223 831.673 779.004 834.824 779.004ZM834.824 781.005C833.375 781.005 832.524 781.373 832.524 782.178C832.524 782.937 833.375 783.351 834.824 783.351C836.25 783.351 837.101 782.937 837.101 782.178C837.101 781.373 836.25 781.005 834.824 781.005ZM833.306 774.588H836.365V777.302H833.306V774.588ZM864.262 774.772H867.344V790.067H864.262V774.772ZM853.153 793.241H867.873V795.679H853.153V793.241ZM853.153 788.526H856.212V794.23H853.153V788.526ZM855.752 776.106C859.018 776.106 861.525 778.36 861.525 781.511C861.525 784.639 859.018 786.916 855.752 786.916C852.486 786.916 849.956 784.639 849.956 781.511C849.956 778.36 852.486 776.106 855.752 776.106ZM855.752 778.751C854.165 778.751 852.946 779.763 852.946 781.511C852.946 783.236 854.165 784.248 855.752 784.248C857.316 784.248 858.535 783.236 858.535 781.511C858.535 779.763 857.316 778.751 855.752 778.751ZM884.454 774.749H887.49V796.047H884.454V774.749ZM886.8 783.052H890.572V785.605H886.8V783.052ZM870.7 777.9H883.097V780.338H870.7V777.9ZM876.933 781.534C880.038 781.534 882.338 783.65 882.338 786.617C882.338 789.584 880.038 791.7 876.933 791.7C873.828 791.7 871.528 789.584 871.528 786.617C871.528 783.65 873.828 781.534 876.933 781.534ZM876.933 784.018C875.484 784.018 874.449 784.984 874.449 786.617C874.449 788.25 875.484 789.216 876.933 789.216C878.382 789.216 879.417 788.25 879.417 786.617C879.417 784.984 878.382 784.018 876.933 784.018ZM875.392 775.094H878.451V778.82H875.392V775.094ZM906.624 774.749H909.706V796.047H906.624V774.749ZM900.345 776.957H903.381C903.381 783.466 901.173 788.802 893.606 792.459L892.019 790.021C898.137 787.077 900.345 783.213 900.345 777.509V776.957ZM893.146 776.957H901.794V779.372H893.146V776.957Z" fill="white"/>
</svg>
